<svg height="512pt" viewBox="-48 0 512 512" width="512pt" xmlns="http://www.w3.org/2000/svg"><path d="m408.277344 400.265625-104.1875 104.1875v-104.1875zm0 0" fill="#edfafa"/><path d="m408.277344 7.546875v392.71875h-104.1875v104.1875h-296.542969v-496.90625zm0 0" fill="#cbf7f7"/><path d="m384.234375 7.546875h24.042969v392.71875h-24.042969zm0 0" fill="#64e1dc"/><path d="m47.148438 183.867188h-15.089844v-151.808594h39.605468v15.089844h-24.515624zm0 0" fill="#fff"/><path d="m32.058594 199.898438h15.089844v16.027343h-15.089844zm0 0" fill="#fff"/><g fill="#231f20"><path d="m159.824219 0v15.089844h240.910156v264.953125h15.089844v-280.042969zm0 0"/><path d="m400.734375 392.71875h-104.191406v71.664062h15.089843v-56.574218h78.429688l-89.097656 89.101562h-285.875v-481.820312h120.691406v-15.089844h-135.78125v512h307.214844l108.609375-108.609375v-99.300781h-15.089844zm0 0"/><path d="m95.707031 109.082031-10.695312-10.695312-10.671875 10.671875 21.367187 21.363281 45.40625-45.410156-10.667969-10.671875zm0 0"/><path d="m151.808594 80.148438h56.101562v15.089843h-56.101562zm0 0"/><path d="m151.808594 112.207031h136.25v15.089844h-136.25zm0 0"/><path d="m141.113281 165.160156-10.667969-10.671875-34.738281 34.738281-10.695312-10.695312-10.671875 10.671875 21.367187 21.363281zm0 0"/><path d="m151.808594 160.292969h56.101562v15.089843h-56.101562zm0 0"/><path d="m151.808594 192.351562h136.25v15.089844h-136.25zm0 0"/><path d="m95.707031 290.714844 45.40625-45.410156-10.667969-10.667969-34.738281 34.738281-10.695312-10.695312-10.671875 10.671874zm0 0"/><path d="m151.808594 240.441406h56.101562v15.089844h-56.101562zm0 0"/><path d="m151.808594 272.5h136.25v15.089844h-136.25zm0 0"/><path d="m95.707031 370.859375 45.40625-45.40625-10.667969-10.671875-34.738281 34.738281-10.695312-10.691406-10.671875 10.667969zm0 0"/><path d="m151.808594 320.585938h56.101562v15.09375h-56.101562zm0 0"/><path d="m151.808594 352.644531h136.25v15.089844h-136.25zm0 0"/><path d="m151.339844 463.914062v-24.046874h24.511718v-15.089844h-39.601562v24.046875h-16.96875v-40.074219h-47.148438v16.027344h-16.5v15.089844h31.589844v-16.027344h16.96875v40.074218zm0 0"/></g><path d="m191.882812 424.777344h16.027344v15.089844h-16.027344zm0 0" fill="#fff"/><path d="m223.941406 424.777344h16.027344v15.089844h-16.027344zm0 0" fill="#fff"/></svg>